<svg width="151" height="40" viewBox="0 0 151 40" fill="none" xmlns="http://www.w3.org/2000/svg">
<path d="M44.52 34C44.4133 34 44.3173 33.9627 44.232 33.888C44.1573 33.8027 44.12 33.7067 44.12 33.6V23.2C44.12 23.0827 44.1573 22.9867 44.232 22.912C44.3173 22.8373 44.4133 22.8 44.52 22.8H48.872C50.2693 22.8 51.3573 23.12 52.136 23.76C52.9253 24.3893 53.32 25.2853 53.32 26.448C53.32 27.1947 53.144 27.8293 52.792 28.352C52.44 28.8747 51.9547 29.2747 51.336 29.552L53.528 33.488C53.56 33.552 53.576 33.6107 53.576 33.664C53.576 33.7493 53.5387 33.8293 53.464 33.904C53.4 33.968 53.3253 34 53.24 34H51.112C50.8027 34 50.584 33.856 50.456 33.568L48.632 30.048H47V33.6C47 33.7173 46.9573 33.8133 46.872 33.888C46.7973 33.9627 46.7013 34 46.584 34H44.52ZM48.84 27.776C49.3307 27.776 49.704 27.6587 49.96 27.424C50.216 27.1787 50.344 26.8427 50.344 26.416C50.344 25.9893 50.216 25.6533 49.96 25.408C49.7147 25.152 49.3413 25.024 48.84 25.024H47V27.776H48.84ZM55.8025 34C55.6958 34 55.5998 33.9627 55.5145 33.888C55.4398 33.8027 55.4025 33.7067 55.4025 33.6V23.2C55.4025 23.0827 55.4398 22.9867 55.5145 22.912C55.5998 22.8373 55.6958 22.8 55.8025 22.8H63.2745C63.3918 22.8 63.4878 22.8373 63.5625 22.912C63.6372 22.9867 63.6745 23.0827 63.6745 23.2V24.704C63.6745 24.8107 63.6372 24.9067 63.5625 24.992C63.4878 25.0667 63.3918 25.104 63.2745 25.104H58.1705V27.264H62.9225C63.0398 27.264 63.1358 27.3067 63.2105 27.392C63.2852 27.4667 63.3225 27.5627 63.3225 27.68V29.072C63.3225 29.1787 63.2852 29.2747 63.2105 29.36C63.1358 29.4347 63.0398 29.472 62.9225 29.472H58.1705V31.696H63.4025C63.5198 31.696 63.6158 31.7333 63.6905 31.808C63.7652 31.8827 63.8025 31.9787 63.8025 32.096V33.6C63.8025 33.7067 63.7652 33.8027 63.6905 33.888C63.6158 33.9627 63.5198 34 63.4025 34H55.8025ZM70.0173 34.16C69.0039 34.16 68.1346 34.0107 67.4093 33.712C66.6839 33.4133 66.1346 33.024 65.7613 32.544C65.3986 32.0533 65.2066 31.52 65.1853 30.944C65.1853 30.8587 65.2173 30.784 65.2813 30.72C65.3559 30.6453 65.4413 30.608 65.5373 30.608H67.5533C67.6813 30.608 67.7826 30.6347 67.8573 30.688C67.9426 30.7307 68.0279 30.8 68.1133 30.896C68.2519 31.1733 68.4759 31.4027 68.7853 31.584C69.0946 31.7653 69.5053 31.856 70.0173 31.856C70.6253 31.856 71.0893 31.76 71.4093 31.568C71.7293 31.376 71.8893 31.1147 71.8893 30.784C71.8893 30.5493 71.8039 30.3573 71.6333 30.208C71.4733 30.0587 71.2173 29.9253 70.8653 29.808C70.5133 29.6907 69.9906 29.5573 69.2973 29.408C68.0173 29.1413 67.0573 28.752 66.4173 28.24C65.7879 27.7173 65.4733 26.976 65.4733 26.016C65.4733 25.3653 65.6546 24.784 66.0173 24.272C66.3799 23.76 66.8973 23.36 67.5693 23.072C68.2413 22.784 69.0253 22.64 69.9213 22.64C70.8493 22.64 71.6546 22.8 72.3373 23.12C73.0199 23.44 73.5373 23.8453 73.8893 24.336C74.2519 24.816 74.4439 25.2907 74.4653 25.76C74.4653 25.856 74.4333 25.936 74.3693 26C74.3053 26.064 74.2253 26.096 74.1293 26.096H72.0173C71.8893 26.096 71.7826 26.0747 71.6973 26.032C71.6226 25.9893 71.5533 25.92 71.4893 25.824C71.4253 25.5787 71.2493 25.3707 70.9613 25.2C70.6839 25.0293 70.3373 24.944 69.9213 24.944C69.4413 24.944 69.0733 25.0293 68.8173 25.2C68.5613 25.3707 68.4333 25.6213 68.4333 25.952C68.4333 26.176 68.5026 26.3627 68.6413 26.512C68.7906 26.6613 69.0253 26.8 69.3453 26.928C69.6759 27.0453 70.1453 27.168 70.7533 27.296C71.7453 27.4773 72.5346 27.7067 73.1213 27.984C73.7186 28.2507 74.1559 28.6027 74.4333 29.04C74.7106 29.4667 74.8493 30.0053 74.8493 30.656C74.8493 31.3707 74.6413 31.9947 74.2253 32.528C73.8199 33.0507 73.2493 33.456 72.5133 33.744C71.7879 34.0213 70.9559 34.16 70.0173 34.16ZM81.2466 34.16C79.7426 34.16 78.5586 33.792 77.6946 33.056C76.8306 32.32 76.372 31.2373 76.3186 29.808C76.308 29.4987 76.3026 29.04 76.3026 28.432C76.3026 27.8133 76.308 27.3493 76.3186 27.04C76.372 25.632 76.836 24.5493 77.7106 23.792C78.596 23.024 79.7746 22.64 81.2466 22.64C82.7186 22.64 83.8973 23.024 84.7826 23.792C85.668 24.5493 86.132 25.632 86.1746 27.04C86.196 27.6587 86.2066 28.1227 86.2066 28.432C86.2066 28.7307 86.196 29.1893 86.1746 29.808C86.1213 31.2373 85.6626 32.32 84.7986 33.056C83.9346 33.792 82.7506 34.16 81.2466 34.16ZM81.2466 31.856C81.8333 31.856 82.2973 31.68 82.6386 31.328C82.9906 30.976 83.1773 30.4373 83.1986 29.712C83.22 29.0933 83.2306 28.656 83.2306 28.4C83.2306 28.1227 83.22 27.6853 83.1986 27.088C83.1773 26.3627 82.9906 25.824 82.6386 25.472C82.2866 25.12 81.8226 24.944 81.2466 24.944C80.6706 24.944 80.2066 25.12 79.8546 25.472C79.5133 25.824 79.3266 26.3627 79.2946 27.088C79.284 27.3867 79.2786 27.824 79.2786 28.4C79.2786 28.9653 79.284 29.4027 79.2946 29.712C79.3266 30.4373 79.5133 30.976 79.8546 31.328C80.196 31.68 80.66 31.856 81.2466 31.856ZM92.9853 34.16C91.4813 34.16 90.3026 33.792 89.4493 33.056C88.6066 32.32 88.1853 31.2107 88.1853 29.728V23.2C88.1853 23.0827 88.2226 22.9867 88.2973 22.912C88.3826 22.8373 88.4786 22.8 88.5853 22.8H90.6493C90.7666 22.8 90.8626 22.8373 90.9373 22.912C91.0226 22.9867 91.0653 23.0827 91.0653 23.2V29.712C91.0653 30.4053 91.2253 30.928 91.5453 31.28C91.8759 31.6213 92.3506 31.792 92.9693 31.792C93.5773 31.792 94.0466 31.616 94.3773 31.264C94.7079 30.912 94.8733 30.3947 94.8733 29.712V23.2C94.8733 23.0827 94.9106 22.9867 94.9853 22.912C95.0706 22.8373 95.1666 22.8 95.2733 22.8H97.3533C97.4706 22.8 97.5666 22.8373 97.6413 22.912C97.7159 22.9867 97.7533 23.0827 97.7533 23.2V29.728C97.7533 31.2107 97.3266 32.32 96.4733 33.056C95.6306 33.792 94.4679 34.16 92.9853 34.16ZM100.495 34C100.388 34 100.292 33.9627 100.207 33.888C100.132 33.8027 100.095 33.7067 100.095 33.6V23.2C100.095 23.0827 100.132 22.9867 100.207 22.912C100.292 22.8373 100.388 22.8 100.495 22.8H104.847C106.244 22.8 107.332 23.12 108.111 23.76C108.9 24.3893 109.295 25.2853 109.295 26.448C109.295 27.1947 109.119 27.8293 108.767 28.352C108.415 28.8747 107.93 29.2747 107.311 29.552L109.503 33.488C109.535 33.552 109.551 33.6107 109.551 33.664C109.551 33.7493 109.514 33.8293 109.439 33.904C109.375 33.968 109.3 34 109.215 34H107.087C106.778 34 106.559 33.856 106.431 33.568L104.607 30.048H102.975V33.6C102.975 33.7173 102.932 33.8133 102.847 33.888C102.772 33.9627 102.676 34 102.559 34H100.495ZM104.815 27.776C105.306 27.776 105.679 27.6587 105.935 27.424C106.191 27.1787 106.319 26.8427 106.319 26.416C106.319 25.9893 106.191 25.6533 105.935 25.408C105.69 25.152 105.316 25.024 104.815 25.024H102.975V27.776H104.815ZM115.923 34.16C114.397 34.16 113.203 33.792 112.339 33.056C111.485 32.3093 111.032 31.232 110.979 29.824C110.968 29.536 110.963 29.0667 110.963 28.416C110.963 27.7547 110.968 27.2747 110.979 26.976C111.032 25.5893 111.496 24.5227 112.371 23.776C113.245 23.0187 114.429 22.64 115.923 22.64C116.861 22.64 117.704 22.8 118.451 23.12C119.197 23.4293 119.784 23.8773 120.211 24.464C120.648 25.04 120.872 25.7173 120.883 26.496V26.528C120.883 26.6133 120.845 26.688 120.771 26.752C120.707 26.8053 120.632 26.832 120.547 26.832H118.387C118.248 26.832 118.141 26.8053 118.067 26.752C117.992 26.688 117.928 26.576 117.875 26.416C117.725 25.872 117.491 25.4933 117.171 25.28C116.851 25.056 116.429 24.944 115.907 24.944C114.648 24.944 113.997 25.648 113.955 27.056C113.944 27.344 113.939 27.7867 113.939 28.384C113.939 28.9813 113.944 29.4347 113.955 29.744C113.997 31.152 114.648 31.856 115.907 31.856C116.429 31.856 116.856 31.744 117.187 31.52C117.517 31.2853 117.747 30.9067 117.875 30.384C117.917 30.224 117.976 30.1173 118.051 30.064C118.125 30 118.237 29.968 118.387 29.968H120.547C120.643 29.968 120.723 30 120.787 30.064C120.861 30.128 120.893 30.208 120.883 30.304C120.872 31.0827 120.648 31.7653 120.211 32.352C119.784 32.928 119.197 33.376 118.451 33.696C117.704 34.0053 116.861 34.16 115.923 34.16ZM123.185 34C123.078 34 122.982 33.9627 122.897 33.888C122.822 33.8027 122.785 33.7067 122.785 33.6V23.2C122.785 23.0827 122.822 22.9867 122.897 22.912C122.982 22.8373 123.078 22.8 123.185 22.8H125.329C125.446 22.8 125.542 22.8373 125.617 22.912C125.702 22.9867 125.745 23.0827 125.745 23.2V33.6C125.745 33.7173 125.702 33.8133 125.617 33.888C125.542 33.9627 125.446 34 125.329 34H123.185ZM128.593 34C128.486 34 128.39 33.9627 128.305 33.888C128.23 33.8027 128.193 33.7067 128.193 33.6V23.2C128.193 23.0827 128.23 22.9867 128.305 22.912C128.39 22.8373 128.486 22.8 128.593 22.8H130.289C130.555 22.8 130.737 22.9013 130.833 23.104L134.737 29.248V23.2C134.737 23.0827 134.774 22.9867 134.849 22.912C134.934 22.8373 135.03 22.8 135.137 22.8H137.057C137.174 22.8 137.27 22.8373 137.345 22.912C137.419 22.9867 137.457 23.0827 137.457 23.2V33.584C137.457 33.7013 137.419 33.8027 137.345 33.888C137.27 33.9627 137.174 34 137.057 34H135.345C135.11 34 134.934 33.8987 134.817 33.696L130.913 27.776V33.6C130.913 33.7067 130.875 33.8027 130.801 33.888C130.726 33.9627 130.63 34 130.513 34H128.593ZM144.537 34.16C143.001 34.16 141.801 33.7867 140.937 33.04C140.073 32.2827 139.614 31.2107 139.561 29.824C139.55 29.5147 139.545 29.024 139.545 28.352C139.545 27.68 139.55 27.1893 139.561 26.88C139.614 25.5253 140.078 24.48 140.953 23.744C141.838 23.008 143.033 22.64 144.537 22.64C145.55 22.64 146.43 22.8053 147.177 23.136C147.934 23.4667 148.51 23.888 148.905 24.4C149.31 24.912 149.523 25.44 149.545 25.984C149.545 26.08 149.507 26.16 149.433 26.224C149.369 26.288 149.289 26.32 149.193 26.32H146.857C146.75 26.32 146.665 26.304 146.601 26.272C146.537 26.24 146.483 26.1813 146.441 26.096C146.302 25.7867 146.083 25.52 145.785 25.296C145.486 25.0613 145.07 24.944 144.537 24.944C143.267 24.944 142.601 25.616 142.537 26.96C142.526 27.2587 142.521 27.7227 142.521 28.352C142.521 28.9707 142.526 29.4347 142.537 29.744C142.601 31.152 143.283 31.856 144.585 31.856C145.214 31.856 145.715 31.696 146.089 31.376C146.473 31.0453 146.665 30.544 146.665 29.872V29.568H145.161C145.043 29.568 144.947 29.5307 144.873 29.456C144.798 29.3707 144.761 29.2693 144.761 29.152V27.968C144.761 27.8507 144.798 27.7547 144.873 27.68C144.947 27.5947 145.043 27.552 145.161 27.552H149.193C149.31 27.552 149.406 27.5947 149.481 27.68C149.555 27.7547 149.593 27.8507 149.593 27.968V29.792C149.593 30.6987 149.385 31.4827 148.969 32.144C148.553 32.7947 147.961 33.296 147.193 33.648C146.435 33.9893 145.55 34.16 144.537 34.16Z" fill="white"/>
<path d="M44.76 17C44.6533 17 44.5627 16.968 44.488 16.904C44.424 16.8293 44.392 16.7387 44.392 16.632V6.184C44.392 6.06667 44.424 5.976 44.488 5.912C44.5627 5.83733 44.6533 5.8 44.76 5.8H48.824C50.0293 5.8 50.9787 6.09333 51.672 6.68C52.3653 7.26667 52.712 8.11467 52.712 9.224C52.712 10.3333 52.3653 11.1813 51.672 11.768C50.9893 12.344 50.04 12.632 48.824 12.632H45.992V16.632C45.992 16.7387 45.9547 16.8293 45.88 16.904C45.8053 16.968 45.7147 17 45.608 17H44.76ZM48.744 11.288C49.5227 11.288 50.1093 11.112 50.504 10.76C50.9093 10.408 51.112 9.896 51.112 9.224C51.112 8.552 50.9147 8.04 50.52 7.688C50.1253 7.32533 49.5333 7.144 48.744 7.144H45.976V11.288H48.744ZM55.2456 17C55.139 17 55.0483 16.968 54.9736 16.904C54.9096 16.8293 54.8776 16.7387 54.8776 16.632V6.184C54.8776 6.06667 54.9096 5.976 54.9736 5.912C55.0483 5.83733 55.139 5.8 55.2456 5.8H59.1496C60.3763 5.8 61.3363 6.088 62.0296 6.664C62.723 7.24 63.0696 8.072 63.0696 9.16C63.0696 9.97067 62.867 10.6373 62.4616 11.16C62.067 11.6827 61.507 12.0453 60.7816 12.248L63.2456 16.504C63.2776 16.568 63.2936 16.6267 63.2936 16.68C63.2936 16.7653 63.2563 16.84 63.1816 16.904C63.1176 16.968 63.043 17 62.9576 17H62.1896C62.0296 17 61.9016 16.9627 61.8056 16.888C61.7203 16.8133 61.6403 16.7067 61.5656 16.568L59.2456 12.504H56.4456V16.632C56.4456 16.7387 56.4083 16.8293 56.3336 16.904C56.259 16.968 56.1683 17 56.0616 17H55.2456ZM59.0856 11.144C60.675 11.144 61.4696 10.4773 61.4696 9.144C61.4696 7.81067 60.675 7.144 59.0856 7.144H56.4456V11.144H59.0856ZM69.5984 17.16C68.201 17.16 67.1184 16.7973 66.3504 16.072C65.593 15.336 65.193 14.232 65.1504 12.76C65.1397 12.44 65.1344 11.9867 65.1344 11.4C65.1344 10.8133 65.1397 10.3653 65.1504 10.056C65.193 8.616 65.609 7.52267 66.3984 6.776C67.1877 6.01867 68.2544 5.64 69.5984 5.64C70.9317 5.64 71.993 6.01867 72.7824 6.776C73.5717 7.52267 73.9877 8.616 74.0304 10.056C74.0517 10.6747 74.0624 11.1227 74.0624 11.4C74.0624 11.6667 74.0517 12.12 74.0304 12.76C73.9877 14.232 73.5824 15.336 72.8144 16.072C72.057 16.7973 70.985 17.16 69.5984 17.16ZM69.5984 15.8C70.441 15.8 71.113 15.544 71.6144 15.032C72.1157 14.52 72.3877 13.736 72.4304 12.68C72.4517 12.04 72.4624 11.6133 72.4624 11.4C72.4624 11.1653 72.4517 10.7387 72.4304 10.12C72.3877 9.064 72.1104 8.28 71.5984 7.768C71.097 7.256 70.4304 7 69.5984 7C68.7557 7 68.0784 7.256 67.5664 7.768C67.065 8.28 66.793 9.064 66.7504 10.12C66.7397 10.4293 66.7344 10.856 66.7344 11.4C66.7344 11.9333 66.7397 12.36 66.7504 12.68C66.793 13.736 67.065 14.52 67.5664 15.032C68.0784 15.544 68.7557 15.8 69.5984 15.8ZM79.9425 17.16C78.7798 17.16 77.8145 16.872 77.0465 16.296C76.2785 15.72 75.8732 14.8773 75.8305 13.768C75.8305 13.672 75.8625 13.592 75.9265 13.528C75.9905 13.4533 76.0758 13.416 76.1825 13.416H77.0465C77.2705 13.416 77.4092 13.5387 77.4625 13.784C77.5265 14.4667 77.7878 14.9733 78.2465 15.304C78.7052 15.6347 79.2812 15.8 79.9745 15.8C80.7745 15.8 81.3878 15.5387 81.8145 15.016C82.2518 14.4827 82.4705 13.768 82.4705 12.872V7.192H76.7905C76.6838 7.192 76.5932 7.16 76.5185 7.096C76.4545 7.02133 76.4225 6.93067 76.4225 6.824V6.168C76.4225 6.06133 76.4545 5.976 76.5185 5.912C76.5932 5.83733 76.6838 5.8 76.7905 5.8H83.6865C83.8038 5.8 83.8945 5.83733 83.9585 5.912C84.0332 5.976 84.0705 6.06667 84.0705 6.184V12.904C84.0705 14.2053 83.7025 15.24 82.9665 16.008C82.2412 16.776 81.2332 17.16 79.9425 17.16ZM87.3431 17C87.2365 17 87.1458 16.968 87.0711 16.904C87.0071 16.8293 86.9751 16.7387 86.9751 16.632V6.184C86.9751 6.06667 87.0071 5.976 87.0711 5.912C87.1458 5.83733 87.2365 5.8 87.3431 5.8H93.9511C94.0578 5.8 94.1431 5.83733 94.2071 5.912C94.2818 5.976 94.3191 6.06667 94.3191 6.184V6.792C94.3191 6.89867 94.2871 6.98933 94.2231 7.064C94.1591 7.128 94.0685 7.16 93.9511 7.16H88.5111V10.664H93.5991C93.7058 10.664 93.7911 10.7013 93.8551 10.776C93.9298 10.84 93.9671 10.9307 93.9671 11.048V11.64C93.9671 11.7467 93.9298 11.8373 93.8551 11.912C93.7911 11.976 93.7058 12.008 93.5991 12.008H88.5111V15.64H94.0791C94.1965 15.64 94.2871 15.672 94.3511 15.736C94.4151 15.8 94.4471 15.8907 94.4471 16.008V16.632C94.4471 16.7387 94.4098 16.8293 94.3351 16.904C94.2711 16.968 94.1858 17 94.0791 17H87.3431ZM100.821 17.16C99.3915 17.16 98.3035 16.776 97.5569 16.008C96.8209 15.24 96.4262 14.1787 96.3729 12.824C96.3622 12.536 96.3569 12.0667 96.3569 11.416C96.3569 10.7547 96.3622 10.2747 96.3729 9.976C96.4262 8.632 96.8262 7.576 97.5729 6.808C98.3195 6.02933 99.4022 5.64 100.821 5.64C101.77 5.64 102.576 5.81067 103.237 6.152C103.898 6.48267 104.4 6.92 104.741 7.464C105.082 8.008 105.269 8.58933 105.301 9.208V9.24C105.301 9.32533 105.264 9.4 105.189 9.464C105.125 9.51733 105.05 9.544 104.965 9.544H104.085C103.872 9.544 103.738 9.42133 103.685 9.176C103.504 8.376 103.178 7.816 102.709 7.496C102.24 7.16533 101.61 7 100.821 7C98.9862 7 98.0369 8.01867 97.9729 10.056C97.9622 10.344 97.9569 10.7867 97.9569 11.384C97.9569 11.9813 97.9622 12.4347 97.9729 12.744C98.0369 14.7813 98.9862 15.8 100.821 15.8C101.61 15.8 102.24 15.64 102.709 15.32C103.189 14.9893 103.514 14.424 103.685 13.624C103.717 13.4853 103.765 13.3893 103.829 13.336C103.893 13.2827 103.978 13.256 104.085 13.256H104.965C105.061 13.256 105.141 13.288 105.205 13.352C105.28 13.4053 105.312 13.48 105.301 13.576C105.269 14.2053 105.082 14.792 104.741 15.336C104.4 15.88 103.898 16.3227 103.237 16.664C102.576 16.9947 101.77 17.16 100.821 17.16ZM110.481 17C110.374 17 110.284 16.968 110.209 16.904C110.145 16.8293 110.113 16.7387 110.113 16.632V7.224H107.041C106.934 7.224 106.844 7.192 106.769 7.128C106.705 7.05333 106.673 6.96267 106.673 6.856V6.184C106.673 6.07733 106.705 5.98667 106.769 5.912C106.844 5.83733 106.934 5.8 107.041 5.8H114.753C114.87 5.8 114.961 5.83733 115.025 5.912C115.1 5.976 115.137 6.06667 115.137 6.184V6.856C115.137 6.96267 115.1 7.05333 115.025 7.128C114.95 7.192 114.86 7.224 114.753 7.224H111.697V16.632C111.697 16.7387 111.66 16.8293 111.585 16.904C111.51 16.968 111.42 17 111.313 17H110.481Z" fill="white"/>
<path fill-rule="evenodd" clip-rule="evenodd" d="M28.4143 16.2007C27.777 16.6252 27.5646 17.0496 27.5646 17.2618C27.1397 21.7182 25.8651 25.9624 23.9531 29.7821C21.8287 32.9653 18.4296 34.0263 14.6057 34.0263C12.4813 34.2385 10.3569 33.8141 8.44495 32.5409C8.02007 32.1165 7.38275 32.1165 6.95787 32.5409L3.34639 35.2996C2.70906 35.724 2.70906 36.5728 3.13395 37.2095L3.34639 37.4217C6.53299 39.3316 10.3569 40.1804 14.1808 39.9682C20.5541 39.9682 25.6526 38.2705 29.0517 33.8141C32.6631 28.9333 34.5751 19.8083 35 13.8664C35 13.2298 34.5751 12.381 33.7253 12.381C33.3005 12.381 33.088 12.381 32.8756 12.5932L28.4143 16.2007Z" fill="white"/>
<path fill-rule="evenodd" clip-rule="evenodd" d="M6.27072 25.7006C6.68877 25.2758 6.89779 25.0634 6.89779 24.851C7.31584 20.3905 8.56998 12.7441 11.4963 9.13326C13.5866 6.79685 16.5129 5.31004 19.6482 5.73484C22.9926 5.73484 25.5009 6.15964 26.9641 8.07126C27.3821 8.70846 28.2182 8.70846 28.8453 8.28366L32.6077 5.31004C33.2348 4.88523 33.2348 4.03563 32.8168 3.39842V3.39842C30.0994 0.424803 25.7099 0 20.4843 0C15.2587 0 10.2422 1.27441 6.68877 5.09764C1.88122 10.6201 0.418048 19.5409 0 28.037C0 28.8866 0.627072 29.3114 1.25414 29.5238C1.46317 29.5238 1.88122 29.5238 2.09024 29.3114L6.27072 25.7006Z" fill="#FFDD00"/>
<path fill-rule="evenodd" clip-rule="evenodd" d="M21.7568 20C21.7568 22.1164 20.0751 23.8095 17.973 23.8095C15.8709 23.8095 14.1892 22.1164 14.1892 20C14.1892 17.8836 15.8709 16.1905 17.973 16.1905V16.1905C20.0751 16.1905 21.7568 17.8836 21.7568 20" fill="white"/>
</svg>
